#N canvas 199 119 1395 736 12;
#X obj 305 69 noise~;
#X obj 550 65 noise~;
#X obj 794 62 noise~;
#X obj 23 480 *~ 0.007;
#X obj 508 648 lop~ 12000;
#X obj 496 692 dac~;
#X obj 348 102 lop~ 16;
#X obj 347 134 *~ 300000;
#X obj 306 173 bp~ 2.064 0.002;
#X obj 550 170 bp~ 2.064 0.002;
#X obj 795 161 bp~ 2.064 0.002;
#X obj 307 204 *~ 3.2;
#X obj 229 224 *~ 344;
#X obj 229 255 +~ 3000;
#X obj 229 287 osc~;
#X obj 299 241 *~;
#X obj 288 272 *~;
#X obj 277 303 *~;
#X obj 272 335 *~;
#X obj 272 366 *~ 0.3;
#X obj 271 396 hip~ 500;
#X obj 271 424 hip~ 500;
#X obj 272 451 *~ 0.01;
#X obj 272 481 lop~ 10000;
#X obj 273 510 *~ 0.01;
#X obj 622 98 lop~ 0.01;
#X obj 550 202 *~ 3.2;
#X obj 458 219 *~ 3000;
#X obj 459 250 +~ 2000;
#X obj 539 236 *~;
#X obj 528 267 *~;
#X obj 517 298 *~;
#X obj 512 330 *~;
#X obj 458 282 osc~;
#X obj 512 361 *~ 0.3;
#X obj 511 391 hip~ 500;
#X obj 511 419 hip~ 500;
#X obj 512 446 *~ 0.01;
#X obj 512 476 lop~ 10000;
#X obj 513 505 *~ 0.02;
#X obj 896 99 lop~ 1900;
#X obj 796 195 *~ 3.8;
#X obj 787 239 *~;
#X obj 776 270 *~;
#X obj 765 301 *~;
#X obj 760 333 *~;
#X obj 705 275 osc~;
#X obj 760 364 *~ 0.3;
#X obj 759 394 hip~ 500;
#X obj 759 422 hip~ 500;
#X obj 760 449 *~ 0.01;
#X obj 760 479 lop~ 10000;
#X obj 705 212 *~ 5000;
#X obj 706 243 +~ 2800;
#X obj 761 508 *~ 0.01;
#X obj 968 217 *~;
#X obj 1114 217 /~;
#X obj 968 270 bp~ 333 4;
#X obj 969 409 *~ 0.4;
#X obj 970 543 *~ 1;
#X obj 1114 262 hip~ 10000;
#X obj 1114 300 *~ 0.03;
#X obj 1107 341 *~;
#X obj 1108 375 clip~ 0 0.9;
#X obj 1109 491 vcf~ 3333 30;
#X obj 1148 448 +~ 1000;
#X obj 1109 527 *~ 0.7;
#X connect 0 0 3 0;
#X connect 0 0 8 0;
#X connect 0 0 6 0;
#X connect 1 0 9 0;
#X connect 1 0 25 0;
#X connect 2 0 40 0;
#X connect 2 0 10 0;
#X connect 2 0 55 1;
#X connect 3 0 4 0;
#X connect 4 0 5 0;
#X connect 4 0 5 1;
#X connect 6 0 7 0;
#X connect 6 0 55 0;
#X connect 7 0 65 0;
#X connect 8 0 11 0;
#X connect 9 0 26 0;
#X connect 10 0 41 0;
#X connect 11 0 12 0;
#X connect 11 0 15 0;
#X connect 11 0 15 1;
#X connect 12 0 13 0;
#X connect 13 0 14 0;
#X connect 14 0 18 0;
#X connect 15 0 16 0;
#X connect 15 0 16 1;
#X connect 16 0 17 0;
#X connect 16 0 17 1;
#X connect 17 0 18 0;
#X connect 18 0 19 0;
#X connect 19 0 20 0;
#X connect 20 0 21 0;
#X connect 21 0 22 0;
#X connect 22 0 23 0;
#X connect 23 0 24 0;
#X connect 24 0 4 0;
#X connect 25 0 56 0;
#X connect 26 0 27 0;
#X connect 26 0 29 0;
#X connect 26 0 29 1;
#X connect 27 0 28 0;
#X connect 28 0 33 0;
#X connect 29 0 30 0;
#X connect 29 0 30 1;
#X connect 30 0 31 0;
#X connect 30 0 31 1;
#X connect 31 0 32 0;
#X connect 32 0 34 0;
#X connect 33 0 32 0;
#X connect 34 0 35 0;
#X connect 35 0 36 0;
#X connect 36 0 37 0;
#X connect 37 0 38 0;
#X connect 38 0 39 0;
#X connect 39 0 4 0;
#X connect 40 0 56 1;
#X connect 41 0 42 0;
#X connect 41 0 42 1;
#X connect 41 0 52 0;
#X connect 42 0 43 0;
#X connect 42 0 43 1;
#X connect 43 0 44 0;
#X connect 43 0 44 1;
#X connect 44 0 45 0;
#X connect 45 0 47 0;
#X connect 46 0 45 0;
#X connect 47 0 48 0;
#X connect 48 0 49 0;
#X connect 49 0 50 0;
#X connect 50 0 51 0;
#X connect 51 0 54 0;
#X connect 52 0 53 0;
#X connect 53 0 46 0;
#X connect 54 0 4 0;
#X connect 55 0 57 0;
#X connect 56 0 60 0;
#X connect 57 0 58 0;
#X connect 58 0 59 0;
#X connect 59 0 4 0;
#X connect 60 0 61 0;
#X connect 61 0 62 0;
#X connect 61 0 62 1;
#X connect 62 0 63 0;
#X connect 63 0 64 0;
#X connect 64 0 66 0;
#X connect 65 0 64 1;
#X connect 66 0 59 0;
